<?xml version="1.0" encoding="utf-8"?>
<!-- Generator: Adobe Illustrator 24.0.3, SVG Export Plug-In . SVG Version: 6.00 Build 0)  -->
<svg version="1.1"
	 id="Layer_1" xmlns:cc="http://creativecommons.org/ns#" xmlns:dc="http://purl.org/dc/elements/1.1/" xmlns:inkscape="http://www.inkscape.org/namespaces/inkscape" xmlns:rdf="http://www.w3.org/1999/02/22-rdf-syntax-ns#" xmlns:sodipodi="http://sodipodi.sourceforge.net/DTD/sodipodi-0.dtd" xmlns:svg="http://www.w3.org/2000/svg"
	 xmlns="http://www.w3.org/2000/svg" xmlns:xlink="http://www.w3.org/1999/xlink" x="0px" y="0px" viewBox="0 0 48 60"
	 style="enable-background:new 0 0 48 60;" xml:space="preserve">
<style type="text/css">
	.st0{fill-rule:evenodd;clip-rule:evenodd;}
</style>
<g transform="translate(0,-1004.3622)">
	<path d="M23.7,1005.4C23.7,1005.4,23.7,1005.4,23.7,1005.4c-0.1,0-0.2,0-0.3,0.1c-1,0.1-2,0.2-3,0.6c-3.8,1.4-6.5,4.6-7.7,8.4
		c-0.4,0-0.8-0.1-1.2-0.1c-1.1,0-2.2,0.2-3.3,0.6c-5.7,2-9.1,7.8-8.2,13.8c0.5,5.3,5.4,10.6,11.9,10.6c4.9,0,9.6,0,14.4,0
		c4-0.2,7.5-2.7,8.9-6.3c0.2-0.6,0.4-1.1,0.5-1.7h2.6c0,0,0,0,0.1,0c4-0.2,7.4-2.8,8.8-6.6c1.4-3.8,0.5-8-2.3-10.9
		c-2.7-2.7-6.6-3-10-1.9c-2.4-4-6.6-6.7-11-6.6C23.9,1005.4,23.8,1005.4,23.7,1005.4L23.7,1005.4z M23.8,1007.4L23.8,1007.4
		c3.9-0.1,7.8,2.3,9.8,6.1c0,0.1,0.1,0.2,0.2,0.2l0.2,0.2c0.3,0.3,0.7,0.4,1.1,0.2c3-1.2,6.4-1,8.6,1.2c2.3,2.3,3,5.7,1.9,8.8
		c-1.1,3-3.9,5.1-7.1,5.3H36c0-1.6-0.5-3.2-1.3-4.7c-0.4-0.8-1-1.5-1.6-2.1c-1.7-1.6-3.9-2.4-6.1-2.4c-1.3,0-2.6,0.2-3.9,0.6
		c-1.5-2.4-3.7-4.3-6.3-5.3c-0.1,0-0.2-0.1-0.3-0.1c-0.1-0.1-0.3-0.1-0.4-0.2c-0.4-0.1-0.8-0.3-1.2-0.4c1-3.1,3.2-5.7,6.3-6.9
		C22,1007.6,22.9,1007.4,23.8,1007.4L23.8,1007.4z M11.8,1016.4c4.6,0.1,7.9,3,9.7,5.9c0.4,0.7,0.9,0.7,1.4,0.6
		c3.1-1,6.4-0.9,8.7,1.2c2.3,2.2,3,5.4,1.9,8.3c-1.1,2.9-3.9,4.9-7.1,5c-4.7,0-9.5,0-14.3,0c-5-0.2-9.2-3.9-10-8.9
		c-0.8-5,2.1-9.9,6.9-11.6C9.9,1016.5,10.9,1016.3,11.8,1016.4L11.8,1016.4z"/>
	<path class="st0" d="M11,1010.4c-0.6,0-1,0.4-1,1c0,0.6,0.4,1,1,1c0,0,0,0,0,0h12c0.6,0,1-0.4,1-1c0-0.6-0.4-1-1-1c0,0,0,0,0,0
		C23,1010.4,11,1010.4,11,1010.4z"/>
	<path class="st0" d="M26,1033.4c-0.6,0-1,0.4-1,1s0.4,1,1,1c0,0,0,0,0,0h12c0.6,0,1-0.4,1-1c0-0.6-0.4-1-1-1c0,0,0,0,0,0H26z"/>
	<path class="st0" d="M3,1049.4c-0.6,0-1,0.4-1,1c0,0.6,0.4,1,1,1c0,0,0,0,0,0h16c0.6,0,1-0.4,1-1s-0.4-1-1-1c0,0,0,0,0,0
		C19,1049.4,3,1049.4,3,1049.4z"/>
	<path class="st0" d="M5,1045.4c-0.6,0-1,0.4-1,1s0.4,1,1,1c0,0,0,0,0,0h38c0.6,0,1-0.4,1-1s-0.4-1-1-1c0,0,0,0,0,0H5z"/>
	<path class="st0" d="M26,1041.4c-0.6,0-1,0.4-1,1s0.4,1,1,1c0,0,0,0,0,0h19c0.6,0,1-0.4,1-1c0-0.6-0.4-1-1-1c0,0,0,0,0,0
		C45,1041.4,26,1041.4,26,1041.4z"/>
</g>
</svg>
