<?xml version="1.0" encoding="utf-8"?>
<!-- Generator: Adobe Illustrator 24.0.3, SVG Export Plug-In . SVG Version: 6.00 Build 0)  -->
<svg version="1.1"
	 id="Layer_1" xmlns:cc="http://creativecommons.org/ns#" xmlns:dc="http://purl.org/dc/elements/1.1/" xmlns:inkscape="http://www.inkscape.org/namespaces/inkscape" xmlns:rdf="http://www.w3.org/1999/02/22-rdf-syntax-ns#" xmlns:sodipodi="http://sodipodi.sourceforge.net/DTD/sodipodi-0.dtd" xmlns:svg="http://www.w3.org/2000/svg"
	 xmlns="http://www.w3.org/2000/svg" xmlns:xlink="http://www.w3.org/1999/xlink" x="0px" y="0px" viewBox="0 0 100 125"
	 style="enable-background:new 0 0 100 125;" xml:space="preserve">
<g transform="translate(0,-952.36218)">
	<g transform="translate(7.0019695,956.33723)">
		<path d="M43,0c-6.4,0-12.8,2.4-17.7,7.3c-5.1,5.1-7.4,11.9-7.2,18.7H18c-10,0-18,8-18,18s8,18,18,18h47c11.6,0,21-9.4,21-21
			c0-10.7-8.1-19.6-18.5-20.8c-0.9-4.7-3.2-9.2-6.8-12.9C55.8,2.4,49.4,0,43,0z M43,2c5.9,0,11.7,2.2,16.2,6.7
			c3.5,3.5,5.7,7.9,6.4,12.5c0.1,0.4,0.5,0.8,0.9,0.8C76.3,22.9,84,31,84,41c0,10.5-8.5,19-19,19H18C9.1,60,2,52.9,2,44
			c0-8.9,7.1-16,16-16h1.1c0.6,0,1.1-0.5,1-1.1c-0.5-6.5,1.7-13.2,6.7-18.2C31.3,4.3,37.1,2,43,2z"/>
		<path d="M18.1,69.5l-4,6.9c-0.3,0.5-0.1,1.1,0.4,1.3c0.5,0.2,1.1,0.1,1.4-0.4l4-6.9c0.3-0.5,0.1-1.1-0.4-1.4
			C18.9,68.8,18.4,69.3,18.1,69.5z M35.1,69.5l-4,6.9c-0.2,0.5-0.1,1.1,0.4,1.3c0.5,0.2,1.1,0.1,1.4-0.4l4-6.9
			c0.2-0.5,0.1-1.1-0.4-1.4C35.9,68.8,35.4,69.2,35.1,69.5z M52.1,69.5l-4,6.9c-0.3,0.5-0.1,1.1,0.4,1.3c0.5,0.2,1.1,0.1,1.4-0.4
			l4-6.9c0.3-0.5,0.1-1.1-0.4-1.4C52.9,68.8,52.4,69.1,52.1,69.5z M69.1,69.5l-4,6.9c-0.3,0.5-0.1,1.1,0.4,1.3
			c0.5,0.2,1.1,0.1,1.3-0.4l4-6.9c0.3-0.5,0.1-1.1-0.4-1.4C69.9,68.8,69.4,69.1,69.1,69.5z M22.1,83.6l-4,6.9
			c-0.3,0.5-0.1,1.1,0.4,1.4c0.5,0.3,1.1,0.1,1.4-0.4l4-6.9c0.3-0.5,0.1-1.1-0.4-1.3C22.9,82.9,22.4,83.2,22.1,83.6z M39.1,83.6
			l-4,6.9c-0.2,0.5-0.1,1.1,0.4,1.4c0.5,0.3,1.1,0.1,1.4-0.4l4-6.9c0.2-0.5,0.1-1.1-0.4-1.3C39.8,82.9,39.4,83.2,39.1,83.6z
			 M56.1,83.6l-4,6.9c-0.3,0.5-0.1,1.1,0.4,1.4c0.5,0.3,1.1,0.1,1.3-0.4l4-6.9c0.3-0.5,0.1-1.1-0.4-1.3
			C56.8,82.9,56.4,83.2,56.1,83.6z"/>
	</g>
</g>
</svg>
