<?xml version="1.0" encoding="utf-8"?>
<!-- Generator: Adobe Illustrator 24.0.3, SVG Export Plug-In . SVG Version: 6.00 Build 0)  -->
<svg version="1.1" id="Layer_1" xmlns="http://www.w3.org/2000/svg" xmlns:xlink="http://www.w3.org/1999/xlink" x="0px" y="0px"
	 viewBox="0 0 100 125" style="enable-background:new 0 0 100 125;" xml:space="preserve">
<path d="M88.9,56.5c-10.7,1-21.2-5-25.5-15.5c-3.8-9.3-1.7-19.6,4.7-26.6c-2.5,0.2-5,0.8-7.4,1.8c-10.5,4.4-16.5,15.1-15.4,25.9
	c-1.9-0.6-3.9-1-6.1-1c-10.4,0-19,7.7-20.8,18.4C13.8,62.4,11,67.2,11,72c0,7.3,5.8,15.1,15.1,15.1h45.2c8.6,0,15.9-6.9,15.9-15.1
	c0-4.1-1.8-7.8-4.7-10.6C85,60.2,87.2,58.5,88.9,56.5z M82,72.1c0,5.3-4.8,9.8-10.6,9.8H26.2c-6.1,0-9.8-5.1-9.8-9.8
	c0-3.2,2.3-6.7,5.8-8.6l1.2-0.7l0.2-1.4c1-8.7,7.6-15,15.7-15c2.8,0,5.3,0.7,7.7,2.3c0.9,0.6,1.8,1.3,2.7,2.1l1,0.9l1.3-0.3
	c0.9-0.2,2.3-0.3,3-0.3c5.2,0,9.6,4,10.4,9.2l0.4,2.9l2.8-0.7c0.9-0.2,1.9-0.3,2.8-0.3c2,0,3.9,0.6,5.5,1.5
	C79.9,65.6,82,68.7,82,72.1z"/>
<polygon points="25.6,28.9 30.8,26.1 36.1,28.9 35.1,23.1 39.3,19 33.4,18.1 30.8,12.8 28.2,18.1 22.4,19 26.6,23.1 "/>
<polygon points="14.3,46.3 18,44.4 21.6,46.3 20.9,42.3 23.9,39.4 19.8,38.8 18,35.1 16.1,38.8 12.1,39.4 15,42.3 "/>
</svg>
