<?xml version="1.0" encoding="utf-8"?>
<!-- Generator: Adobe Illustrator 24.0.3, SVG Export Plug-In . SVG Version: 6.00 Build 0)  -->
<svg version="1.1"
	 id="Layer_1" xmlns:cc="http://creativecommons.org/ns#" xmlns:dc="http://purl.org/dc/elements/1.1/" xmlns:inkscape="http://www.inkscape.org/namespaces/inkscape" xmlns:rdf="http://www.w3.org/1999/02/22-rdf-syntax-ns#" xmlns:sodipodi="http://sodipodi.sourceforge.net/DTD/sodipodi-0.dtd" xmlns:svg="http://www.w3.org/2000/svg"
	 xmlns="http://www.w3.org/2000/svg" xmlns:xlink="http://www.w3.org/1999/xlink" x="0px" y="0px" viewBox="0 0 100 125"
	 style="enable-background:new 0 0 100 125;" xml:space="preserve">
<g transform="translate(0,-952.36218)">
	<path d="M45.7,968.4c-6.2,0-12.5,2.3-17.3,6.8c-3.2,3.1-5.3,6.8-6.4,10.7c-9.7,1.7-17.1,9.6-17.1,19.2c0,10.8,9.3,19.6,20.8,19.6
		h42.5c10,0,18.1-7.7,18.1-17.1c0-8.9-7.3-16.1-16.5-16.9c-0.2-5.7-2.4-11.3-7-15.6C58.2,970.6,52,968.4,45.7,968.4z M45.7,973.5
		c4.9,0,9.7,1.7,13.4,5.2c4.1,3.9,5.9,9.1,5.5,14.2c-0.1,1.4,1,2.6,2.5,2.8c0.1,0,0.2,0,0.2,0h1c7.1,0,12.7,5.3,12.7,12
		s-5.6,12-12.7,12H25.8c-8.5,0-15.4-6.5-15.4-14.5c0-7.6,6.2-13.9,14.1-14.5c1.2-0.1,2.3-1,2.5-2.1c0.6-3.6,2.4-7,5.3-9.7
		C36,975.2,40.8,973.5,45.7,973.5z M29.2,1027.5c-0.9,0.1-1.7,0.5-2.1,1.3l-9,14.8c-0.7,1.2-0.3,2.8,1,3.5s3,0.3,3.7-0.9l9-14.8
		c0.7-1.2,0.3-2.8-1-3.5C30.3,1027.6,29.8,1027.4,29.2,1027.5z M47.5,1027.5c-0.9,0.1-1.7,0.5-2.2,1.3l-10.9,17.8
		c-0.7,1.2-0.3,2.8,1,3.5s3,0.3,3.7-0.9l10.9-17.8c0.7-1.2,0.3-2.8-1-3.5C48.5,1027.6,48,1027.4,47.5,1027.5z M65.6,1027.5
		c-0.9,0.1-1.7,0.5-2.2,1.3l-9,14.8c-0.7,1.2-0.3,2.8,1,3.5s3,0.3,3.7-0.9l9-14.8c0.7-1.2,0.3-2.8-1-3.5
		C66.6,1027.6,66.1,1027.4,65.6,1027.5z"/>
</g>
<path d="M70.4,18.7c-0.7,0-1.3-0.6-1.3-1.3V9.9c0-0.7,0.6-1.3,1.3-1.3s1.3,0.6,1.3,1.3v7.6C71.6,18.1,71.1,18.7,70.4,18.7z"/>
<path d="M94.3,35.1h-7.6c-0.7,0-1.3-0.6-1.3-1.3s0.6-1.3,1.3-1.3h7.6c0.7,0,1.3,0.6,1.3,1.3C95.6,34.5,95,35.1,94.3,35.1z"/>
<path d="M82.9,23.1c-0.5,0.5-1.3,0.5-1.8,0s-0.5-1.3,0-1.8l5.3-5.3c0.5-0.5,1.3-0.5,1.8,0s0.5,1.3,0,1.8L82.9,23.1z"/>
<path d="M65.9,34.9c1,4,0.3,1.5,4.5,4.2c2.9-0.2,5.4,1.2,7.2,3.2c4.1-3,6.3-9.4,3.3-15.2c-0.8-1.6-2.2-2.9-3.8-3.8
	c-8-4.2-14.1-0.7-14.6,6.5C63.1,29.6,65.4,32.8,65.9,34.9z"/>
</svg>
