<?xml version="1.0" encoding="utf-8"?>
<!-- Generator: Adobe Illustrator 24.0.3, SVG Export Plug-In . SVG Version: 6.00 Build 0)  -->
<svg version="1.1"
	 id="Layer_1" xmlns:cc="http://creativecommons.org/ns#" xmlns:dc="http://purl.org/dc/elements/1.1/" xmlns:inkscape="http://www.inkscape.org/namespaces/inkscape" xmlns:rdf="http://www.w3.org/1999/02/22-rdf-syntax-ns#" xmlns:sodipodi="http://sodipodi.sourceforge.net/DTD/sodipodi-0.dtd" xmlns:svg="http://www.w3.org/2000/svg"
	 xmlns="http://www.w3.org/2000/svg" xmlns:xlink="http://www.w3.org/1999/xlink" x="0px" y="0px" viewBox="0 0 100 125"
	 style="enable-background:new 0 0 100 125;" xml:space="preserve">
<g transform="translate(0,-952.36218)">
	<path d="M51.6,959.6c-5.9,0-11.9,2.2-16.4,6.8c-3.1,3.1-5.1,6.9-6,10.8c-9.2,1.6-16.3,9.6-16.3,19.4c0,10.9,8.9,19.8,19.8,19.8
		h40.4c9.5,0,17.2-7.7,17.2-17.2c0-8.9-6.9-16.3-15.7-17c-0.2-5.7-2.3-11.4-6.6-15.7C63.4,961.8,57.5,959.6,51.6,959.6z M51.6,964.7
		c4.6,0,9.2,1.7,12.7,5.2c4,4,5.7,9.2,5.2,14.3c-0.1,1.5,0.9,2.7,2.3,2.8c0.1,0,0.2,0,0.3,0h0.9c6.7,0,12,5.3,12,12s-5.3,12-12,12
		H32.6c-8.1,0-14.6-6.5-14.6-14.6c0-7.7,5.9-13.9,13.4-14.6c1.2-0.1,2.2-0.9,2.3-2.2c0.6-3.6,2.2-7.1,5-9.8
		C42.4,966.4,46.9,964.7,51.6,964.7z M35.9,1019.1c-0.9,0.1-1.6,0.5-2.1,1.3l-8.6,14.9c-0.7,1.2-0.3,2.8,0.9,3.5
		c1.2,0.7,2.8,0.3,3.5-0.9l8.6-14.9c0.7-1.2,0.3-2.8-0.9-3.5C36.9,1019.2,36.4,1019,35.9,1019.1z M53.2,1019.1
		c-0.9,0.1-1.6,0.5-2.1,1.3l-10.3,17.9c-0.7,1.2-0.3,2.8,0.9,3.5c1.2,0.7,2.8,0.3,3.5-0.9l10.3-17.9c0.7-1.2,0.3-2.8-0.9-3.5
		C54.2,1019.2,53.7,1019,53.2,1019.1z M70.4,1019.1c-0.9,0.1-1.6,0.5-2.1,1.3l-8.6,14.9c-0.7,1.2-0.3,2.8,0.9,3.5
		c1.2,0.7,2.8,0.3,3.5-0.9l8.6-14.9c0.7-1.2,0.3-2.8-0.9-3.5C71.4,1019.2,70.9,1019,70.4,1019.1z"/>
</g>
</svg>
