<?xml version="1.0" encoding="utf-8"?>
<!-- Generator: Adobe Illustrator 24.0.3, SVG Export Plug-In . SVG Version: 6.00 Build 0)  -->
<svg version="1.1"
	 id="Layer_1" xmlns:cc="http://creativecommons.org/ns#" xmlns:dc="http://purl.org/dc/elements/1.1/" xmlns:inkscape="http://www.inkscape.org/namespaces/inkscape" xmlns:rdf="http://www.w3.org/1999/02/22-rdf-syntax-ns#" xmlns:sodipodi="http://sodipodi.sourceforge.net/DTD/sodipodi-0.dtd" xmlns:svg="http://www.w3.org/2000/svg"
	 xmlns="http://www.w3.org/2000/svg" xmlns:xlink="http://www.w3.org/1999/xlink" x="0px" y="0px" viewBox="0 0 48 60"
	 style="enable-background:new 0 0 48 60;" xml:space="preserve">
<style type="text/css">
	.st0{fill-rule:evenodd;clip-rule:evenodd;}
</style>
<g transform="translate(0,-1004.3622)">
	<path d="M30,1008.4c-0.1,0-0.2,0-0.3,0c-4.2,0-8.1,2.4-10.4,6.1c-3.3-1.1-6.9-0.7-9.5,1.7c-2.7,2.6-3.6,6.6-2.2,10.1
		c1.3,3.5,4.6,5.9,8.4,6.1c6,0,7.3,0,14-0.1c5.5-0.1,10-4.5,10.9-10.1c0.9-5.7-2.4-11.3-7.7-13.2C32.1,1008.6,31.1,1008.4,30,1008.4
		L30,1008.4z M30,1010.4L30,1010.4c0.8,0,1.7,0.2,2.5,0.5c4.5,1.6,7.2,6.2,6.4,11c-0.7,4.8-4.7,8.3-9.4,8.5c-4.5,0-8.9,0-13.4,0
		c-3-0.2-5.6-2-6.6-4.8c-1.1-2.8-0.4-5.9,1.8-7.9c2.1-2,5.2-2.2,8.1-1.1c0.7,0.2,1.1,0,1.4-0.6C22.8,1012.6,26.3,1010.2,30,1010.4
		L30,1010.4z"/>
	<path class="st0" d="M32,1043.4c-0.3,0-0.5,0.1-0.7,0.3l-2,2c-0.4,0.4-0.4,1,0,1.4s1,0.4,1.4,0c0,0,0,0,0,0l2-2
		c0.4-0.4,0.4-1,0-1.4C32.5,1043.5,32.3,1043.4,32,1043.4L32,1043.4z"/>
	<path class="st0" d="M16,1043.4c-0.3,0-0.5,0.1-0.7,0.3l-2,2c-0.4,0.4-0.4,1,0,1.4c0.4,0.4,1,0.4,1.4,0c0,0,0,0,0,0l2-2
		c0.4-0.4,0.4-1,0-1.4C16.5,1043.5,16.3,1043.4,16,1043.4L16,1043.4z"/>
	<path class="st0" d="M26,1035.4c-0.3,0-0.6,0.1-0.8,0.4l-5,6c-0.4,0.4-0.3,1.1,0.1,1.4c0.2,0.2,0.5,0.3,0.8,0.2l3.3-0.6l-3.3,3.9
		c-0.4,0.4-0.3,1,0.1,1.4c0.4,0.4,1,0.3,1.4-0.1c0,0,0,0,0,0l5-6c0.4-0.4,0.3-1.1-0.1-1.4c-0.2-0.2-0.5-0.3-0.8-0.2l-3.3,0.6
		l3.3-3.9c0.4-0.4,0.3-1.1-0.1-1.4C26.5,1035.4,26.2,1035.4,26,1035.4z"/>
	<path class="st0" d="M8,1043.4c-0.3,0-0.5,0.1-0.7,0.3l-2,2c-0.4,0.4-0.4,1,0,1.4c0.4,0.4,1,0.4,1.4,0c0,0,0,0,0,0l2-2
		c0.4-0.4,0.4-1,0-1.4C8.5,1043.5,8.3,1043.4,8,1043.4z"/>
	<path class="st0" d="M40,1043.4c-0.3,0-0.5,0.1-0.7,0.3l-2,2c-0.4,0.4-0.4,1,0,1.4c0.4,0.4,1,0.4,1.4,0c0,0,0,0,0,0l2-2
		c0.4-0.4,0.4-1,0-1.4C40.5,1043.5,40.3,1043.4,40,1043.4L40,1043.4z"/>
	<path class="st0" d="M42,1036.4c-0.3,0-0.5,0.1-0.7,0.3l-2,2c-0.4,0.4-0.4,1,0,1.4c0.4,0.4,1,0.4,1.4,0c0,0,0,0,0,0l2-2
		c0.4-0.4,0.4-1,0-1.4C42.5,1036.5,42.3,1036.4,42,1036.4L42,1036.4z"/>
	<path class="st0" d="M34,1036.4c-0.3,0-0.5,0.1-0.7,0.3l-2,2c-0.4,0.4-0.4,1,0,1.4s1,0.4,1.4,0c0,0,0,0,0,0l2-2
		c0.4-0.4,0.4-1,0-1.4C34.5,1036.5,34.3,1036.4,34,1036.4L34,1036.4z"/>
	<path class="st0" d="M18,1036.4c-0.3,0-0.5,0.1-0.7,0.3l-2,2c-0.4,0.4-0.4,1,0,1.4s1,0.4,1.4,0c0,0,0,0,0,0l2-2
		c0.4-0.4,0.4-1,0-1.4C18.5,1036.5,18.3,1036.4,18,1036.4L18,1036.4z"/>
	<path class="st0" d="M10,1036.4c-0.3,0-0.5,0.1-0.7,0.3l-2,2c-0.4,0.4-0.4,1,0,1.4c0.4,0.4,1,0.4,1.4,0c0,0,0,0,0,0l2-2
		c0.4-0.4,0.4-1,0-1.4C10.5,1036.5,10.3,1036.4,10,1036.4L10,1036.4z"/>
</g>
</svg>
