<?xml version="1.0" encoding="utf-8"?>
<!-- Generator: Adobe Illustrator 24.0.3, SVG Export Plug-In . SVG Version: 6.00 Build 0)  -->
<svg version="1.1" id="Layer_1" xmlns="http://www.w3.org/2000/svg" xmlns:xlink="http://www.w3.org/1999/xlink" x="0px" y="0px"
	 viewBox="0 0 120 150" style="enable-background:new 0 0 120 150;" xml:space="preserve">
<title>09 Snow</title>
<path d="M60,58.4c0.3-0.4,0.1-1-0.3-1.3c-0.3-0.2-0.7-0.2-1,0c-0.1-0.5-0.6-0.8-1.1-0.7c-0.3,0.1-0.6,0.3-0.7,0.7
	c-0.4-0.3-1-0.1-1.3,0.3c-0.2,0.3-0.2,0.7,0,1c-0.5,0.1-0.8,0.6-0.7,1.1c0.1,0.3,0.3,0.6,0.7,0.7c-0.3,0.4-0.1,1,0.3,1.3
	c0.3,0.2,0.7,0.2,1,0c0.1,0.5,0.6,0.8,1.1,0.7c0.3-0.1,0.6-0.3,0.7-0.7c0.4,0.3,1,0.1,1.3-0.3c0.2-0.3,0.2-0.7,0-0.9
	c0.5-0.1,0.8-0.6,0.7-1.1C60.6,58.7,60.3,58.5,60,58.4L60,58.4z"/>
<path d="M29.6,58.4c0.3-0.4,0.1-1-0.3-1.3c-0.3-0.2-0.7-0.2-1,0c-0.1-0.5-0.6-0.8-1.1-0.7c-0.3,0.1-0.6,0.3-0.7,0.7
	c-0.4-0.3-1-0.1-1.3,0.3c-0.2,0.3-0.2,0.7,0,1c-0.5,0.1-0.8,0.6-0.7,1.1c0.1,0.3,0.3,0.6,0.7,0.7c-0.3,0.4-0.1,1,0.3,1.3
	c0.3,0.2,0.7,0.2,1,0c0.1,0.5,0.6,0.8,1.1,0.7c0.3-0.1,0.6-0.3,0.7-0.7c0.4,0.3,1,0.1,1.3-0.3c0.2-0.3,0.2-0.7,0-1
	c0.5-0.1,0.8-0.6,0.7-1.1C30.2,58.7,29.9,58.4,29.6,58.4z"/>
<path d="M93.4,58.4c0.3-0.4,0.1-1-0.3-1.3c-0.3-0.2-0.7-0.2-1,0c-0.1-0.5-0.6-0.8-1.1-0.7c-0.3,0.1-0.6,0.3-0.7,0.7
	c-0.5-0.2-1-0.1-1.3,0.4c-0.1,0.3-0.1,0.6,0,0.9c-0.5,0.1-0.8,0.6-0.7,1.1c0.1,0.3,0.3,0.6,0.7,0.7c-0.3,0.4-0.1,1,0.3,1.3
	c0.3,0.2,0.7,0.2,1,0c0.1,0.5,0.6,0.8,1.1,0.7c0.3-0.1,0.6-0.3,0.7-0.7c0.4,0.3,1,0.1,1.3-0.3c0.2-0.3,0.2-0.7,0-1
	c0.5-0.1,0.8-0.6,0.7-1.1C94,58.7,93.7,58.4,93.4,58.4L93.4,58.4z"/>
<path d="M45.5,49.7c0.3-0.4,0.1-1-0.3-1.3c-0.3-0.2-0.7-0.2-1,0c-0.1-0.5-0.6-0.8-1.1-0.7c-0.3,0.1-0.6,0.3-0.7,0.7
	c-0.4-0.3-1-0.1-1.3,0.3c-0.2,0.3-0.2,0.7,0,1c-0.5,0.1-0.8,0.6-0.7,1.1c0.1,0.3,0.3,0.6,0.7,0.7c-0.3,0.4-0.1,1,0.3,1.3
	c0.3,0.2,0.7,0.2,1,0c0.1,0.5,0.6,0.8,1.1,0.7c0.3-0.1,0.6-0.3,0.7-0.7c0.4,0.3,1,0.1,1.3-0.3c0.2-0.3,0.2-0.7,0-1
	c0.5-0.1,0.8-0.6,0.7-1.1C46.1,50,45.9,49.8,45.5,49.7z"/>
<path d="M15.1,49.7c0.3-0.4,0.1-1-0.3-1.3c-0.3-0.2-0.7-0.2-1,0c-0.1-0.5-0.6-0.8-1.1-0.7c-0.3,0.1-0.6,0.3-0.7,0.7
	c-0.4-0.3-1-0.1-1.3,0.3c-0.2,0.3-0.2,0.7,0,1c-0.5,0.1-0.8,0.6-0.7,1.1c0.1,0.3,0.3,0.6,0.7,0.7c-0.3,0.4-0.1,1,0.3,1.3
	c0.3,0.2,0.7,0.2,1,0c0.1,0.5,0.6,0.8,1.1,0.7c0.3-0.1,0.6-0.3,0.7-0.7c0.4,0.3,1,0.1,1.3-0.3c0.2-0.3,0.2-0.7,0-1
	c0.5-0.1,0.8-0.6,0.7-1.1C15.7,50,15.4,49.8,15.1,49.7L15.1,49.7z"/>
<path d="M78.9,49.7c0.3-0.4,0.1-1-0.3-1.3c-0.3-0.2-0.7-0.2-1,0c-0.1-0.5-0.6-0.8-1.1-0.7c-0.3,0.1-0.6,0.3-0.7,0.7
	c-0.4-0.3-1-0.1-1.3,0.3c-0.2,0.3-0.2,0.7,0,1c-0.5,0.1-0.8,0.6-0.7,1.1c0.1,0.3,0.3,0.6,0.7,0.7c-0.3,0.4-0.1,1,0.3,1.3
	c0.3,0.2,0.7,0.2,1,0c0.1,0.5,0.6,0.8,1.1,0.7c0.3-0.1,0.6-0.3,0.7-0.7c0.4,0.3,1,0.1,1.3-0.3c0.2-0.3,0.2-0.7,0-1
	c0.5-0.1,0.8-0.6,0.7-1.1C79.5,50,79.2,49.8,78.9,49.7z"/>
<path d="M45.5,68.5c0.3-0.4,0.1-1-0.3-1.3c-0.3-0.2-0.7-0.2-1,0c-0.1-0.5-0.6-0.8-1.1-0.7c-0.3,0.1-0.6,0.3-0.7,0.7
	c-0.4-0.3-1-0.1-1.3,0.3c-0.2,0.3-0.2,0.7,0,1c-0.5,0.1-0.8,0.6-0.7,1.1c0.1,0.3,0.3,0.6,0.7,0.7c-0.3,0.4-0.1,1,0.3,1.3
	c0.3,0.2,0.7,0.2,1,0c0.1,0.5,0.6,0.8,1.1,0.7c0.3-0.1,0.6-0.3,0.7-0.7c0.4,0.3,1,0.1,1.3-0.3c0.2-0.3,0.2-0.7,0-1
	c0.5-0.1,0.8-0.6,0.7-1.1C46.1,68.9,45.9,68.6,45.5,68.5z"/>
<path d="M78.9,68.5c0.3-0.4,0.1-1-0.3-1.3c-0.3-0.2-0.7-0.2-1,0c-0.1-0.5-0.6-0.8-1.1-0.7c-0.3,0.1-0.6,0.3-0.7,0.7
	c-0.4-0.3-1-0.1-1.3,0.3c-0.2,0.3-0.2,0.7,0,1c-0.5,0.1-0.8,0.6-0.7,1.1c0.1,0.3,0.3,0.6,0.7,0.7c-0.3,0.4-0.1,1,0.3,1.3
	c0.3,0.2,0.7,0.2,1,0c0.1,0.5,0.6,0.8,1.1,0.7c0.3-0.1,0.6-0.3,0.7-0.7c0.4,0.3,1,0.1,1.3-0.3c0.2-0.3,0.2-0.7,0-1
	c0.5-0.1,0.8-0.6,0.7-1.1C79.5,68.9,79.2,68.6,78.9,68.5z"/>
<path d="M109.3,49.7c0.3-0.4,0.1-1-0.3-1.3c-0.3-0.2-0.7-0.2-1,0c-0.1-0.5-0.6-0.8-1.1-0.7c-0.3,0.1-0.6,0.3-0.7,0.7
	c-0.4-0.3-1-0.1-1.3,0.3c-0.2,0.3-0.2,0.7,0,1c-0.5,0.1-0.8,0.6-0.7,1.1c0.1,0.3,0.3,0.6,0.7,0.7c-0.3,0.4-0.1,1,0.3,1.3
	c0.3,0.2,0.7,0.2,1,0c0.1,0.5,0.6,0.8,1.1,0.7c0.3-0.1,0.6-0.3,0.7-0.7c0.4,0.3,1,0.1,1.3-0.3c0.2-0.3,0.2-0.7,0-1
	c0.5-0.1,0.8-0.6,0.7-1.1C109.9,50,109.6,49.8,109.3,49.7L109.3,49.7z"/>
<path d="M15.1,68.5c0.3-0.4,0.1-1-0.3-1.3c-0.3-0.2-0.7-0.2-1,0c-0.1-0.5-0.6-0.8-1.1-0.7c-0.3,0.1-0.6,0.3-0.7,0.7
	c-0.4-0.3-1-0.1-1.3,0.3c-0.2,0.3-0.2,0.7,0,1c-0.5,0.1-0.8,0.6-0.7,1.1c0.1,0.3,0.3,0.6,0.7,0.7c-0.3,0.4-0.1,1,0.3,1.3
	c0.3,0.2,0.7,0.2,1,0c0.1,0.5,0.6,0.8,1.1,0.7c0.3-0.1,0.6-0.3,0.7-0.7c0.4,0.3,1,0.1,1.3-0.3c0.2-0.3,0.2-0.7,0-1
	c0.5-0.1,0.8-0.6,0.7-1.1C15.7,68.9,15.4,68.6,15.1,68.5L15.1,68.5z"/>
<path d="M109.3,68.5c0.3-0.4,0.1-1-0.3-1.3c-0.3-0.2-0.7-0.2-1,0c-0.1-0.5-0.6-0.8-1.1-0.7c-0.3,0.1-0.6,0.3-0.7,0.7
	c-0.4-0.3-1-0.1-1.3,0.3c-0.2,0.3-0.2,0.7,0,1c-0.5,0.1-0.8,0.6-0.7,1.1c0.1,0.3,0.3,0.6,0.7,0.7c-0.3,0.4-0.1,1,0.3,1.3
	c0.3,0.2,0.7,0.2,1,0c0.1,0.5,0.6,0.8,1.1,0.7c0.3-0.1,0.6-0.3,0.7-0.7c0.4,0.3,1,0.1,1.3-0.3c0.2-0.3,0.2-0.7,0-1
	c0.5-0.1,0.8-0.6,0.7-1.1C109.9,68.9,109.6,68.6,109.3,68.5L109.3,68.5z"/>
</svg>
