<?xml version="1.0" encoding="utf-8"?>
<!-- Generator: Adobe Illustrator 24.0.3, SVG Export Plug-In . SVG Version: 6.00 Build 0)  -->
<svg version="1.1" id="Layer_1" xmlns="http://www.w3.org/2000/svg" xmlns:xlink="http://www.w3.org/1999/xlink" x="0px" y="0px"
	 viewBox="0 0 120 150" style="enable-background:new 0 0 120 150;" xml:space="preserve">
<title>138 Snowflake</title>
<path d="M91,47.5h-1c0-16.6-13.4-30-30-30s-30,13.4-30,30h-1c-10.5,0-19,8.5-19,19l0,0c0,10.5,8.5,19,19,19h41.2
	c-0.2-0.6-0.2-1.4,0-2H29c-9.4,0-17-7.6-17-17s7.6-17,17-17h3v-2c0-15.5,12.5-28,28-28s28,12.5,28,28v2h3c9.4,0,17,7.7,17,17
	c0,3.4-1,6.7-3,9.5c-0.2,0.9-0.9,1.7-1.8,2.1c-0.6,0.6-1.3,1.2-2,1.8l0.2,0.1c0.2,0.2,0.4,0.4,0.6,0.7l0.8-0.7
	c0.6-0.5,1.3-0.8,2.1-0.8l0,0c3.2-3.5,5-8.1,5-12.8l0,0C109.9,56,101.5,47.6,91,47.5z"/>
<path d="M107,83.5h-1.8l0.6-0.5c0.4-0.3,0.4-0.9,0.1-1.3c0,0-0.1-0.1-0.1-0.1c-0.5-0.4-1.1-0.4-1.6,0l-1.6,1.4
	c-0.1,0.1-0.2,0.3-0.3,0.5h-2.7l0.6-0.5c0.4-0.3,0.4-0.9,0.1-1.3c0,0-0.1-0.1-0.1-0.1c-0.5-0.4-1.1-0.4-1.6,0L97,83
	c-0.1,0.1-0.2,0.3-0.3,0.5h-4.4l3-3c0.2,0.1,0.4,0.2,0.6,0.2l2.1-0.1c0.6-0.1,1.1-0.5,1.1-1.1c0-0.5-0.3-1-0.8-1c-0.1,0-0.1,0-0.2,0
	h-0.8l1.9-1.9c0.2,0.1,0.4,0.2,0.6,0.2l2.1-0.1c0.6,0,1.1-0.5,1.1-1.1c0-0.5-0.3-1-0.8-1c-0.1,0-0.1,0-0.2,0h-0.8l1.3-1.3
	c0.4-0.4,0.4-1,0-1.4c0,0,0,0,0,0c-0.4-0.4-1-0.4-1.4,0L100,73v-0.8c0-0.5-0.3-1-0.8-1c-0.1,0-0.1,0-0.2,0c-0.6,0-1.1,0.5-1.1,1.1
	l-0.1,2.1c0,0.2,0,0.4,0.2,0.6L96,77v-0.8c0-0.5-0.3-1-0.8-1c-0.1,0-0.1,0-0.2,0c-0.6,0-1.1,0.5-1.1,1.1l-0.1,2.1
	c0,0.2,0,0.4,0.2,0.6L91,82v-3.9c0.2,0,0.4-0.1,0.5-0.3l1.4-1.6c0.4-0.5,0.4-1.1,0-1.6c-0.3-0.4-0.9-0.4-1.3-0.1
	c0,0-0.1,0.1-0.1,0.1L91,75.2v-2.7c0.2,0,0.4-0.1,0.5-0.3l1.4-1.6c0.4-0.5,0.4-1.1,0-1.6c-0.3-0.4-0.9-0.4-1.3-0.1
	c0,0-0.1,0.1-0.1,0.1L91,69.5v-2c0-0.6-0.4-1-1-1s-1,0.4-1,1v2L88.5,69c-0.3-0.4-0.9-0.4-1.3-0.1c0,0-0.1,0.1-0.1,0.1
	c-0.4,0.5-0.4,1.1,0,1.6l1.4,1.6c0.1,0.1,0.3,0.2,0.5,0.3v2.7l-0.5-0.6c-0.3-0.4-0.9-0.4-1.3-0.1c0,0-0.1,0.1-0.1,0.1
	c-0.4,0.5-0.4,1.1,0,1.6l1.4,1.6c0.1,0.1,0.3,0.2,0.5,0.3v4.1l-2.9-2.9c0.1-0.2,0.2-0.4,0.2-0.6l-0.1-2.1c0-0.6-0.5-1.1-1.1-1.2
	c-0.5,0-1,0.3-1,0.8c0,0.1,0,0.1,0,0.2v0.8l-1.9-1.9c0.1-0.2,0.2-0.4,0.2-0.6l-0.1-2.1c0-0.6-0.5-1.1-1.1-1.1c-0.5,0-1,0.3-1,0.8
	c0,0.1,0,0.1,0,0.2v0.8l-1.4-1.4c-0.4-0.4-1-0.4-1.4,0c-0.4,0.4-0.4,1,0,1.4c0,0,0,0,0,0l1.4,1.4h-0.8c-0.5,0-1,0.3-1,0.8
	c0,0.1,0,0.1,0,0.2c0.1,0.6,0.5,1,1.1,1.1l2.1,0.1c0.2,0,0.4-0.1,0.6-0.2l1.9,1.9h-0.8c-0.5,0-1,0.3-1,0.8c0,0.1,0,0.1,0,0.2
	c0.1,0.6,0.6,1,1.2,1.1l2.1,0.1c0.2,0,0.4,0,0.6-0.2l2.8,2.8h-3.9c0-0.2-0.1-0.4-0.3-0.5l-1.6-1.4c-0.5-0.4-1.1-0.4-1.6,0
	c-0.4,0.3-0.4,0.9-0.1,1.3c0,0,0.1,0.1,0.1,0.1l0.6,0.5h-2.7c0-0.2-0.1-0.4-0.3-0.5l-1.6-1.4c-0.5-0.4-1.1-0.4-1.6,0
	c-0.4,0.3-0.4,0.9-0.1,1.3c0,0,0.1,0.1,0.1,0.1l0.6,0.5h-2c-0.6,0-1,0.4-1,1s0.4,1,1,1h2L74.4,86c-0.4,0.3-0.4,0.9-0.1,1.3
	c0,0,0.1,0.1,0.1,0.1c0.5,0.4,1.1,0.4,1.6,0l1.6-1.4c0.1-0.1,0.2-0.3,0.3-0.5h2.7L80.1,86c-0.4,0.3-0.4,0.9-0.1,1.3
	c0,0,0.1,0.1,0.1,0.1c0.5,0.4,1.1,0.4,1.6,0l1.6-1.4c0.1-0.1,0.2-0.3,0.3-0.5h3.9l-2.8,2.8c-0.2-0.1-0.4-0.2-0.6-0.2L82,88.3
	c-0.6,0.1-1.1,0.5-1.1,1.1c0,0.5,0.3,1,0.8,1c0.1,0,0.1,0,0.2,0l0.8-0.1l-1.9,1.9c-0.2-0.1-0.4-0.2-0.6-0.2L78,92.3
	c-0.6,0-1.1,0.5-1.1,1.1c0,0.5,0.3,1,0.8,1c0.1,0,0.1,0,0.2,0h0.8l-1.4,1.4c-0.4,0.4-0.4,1,0,1.4c0,0,0,0,0,0c0.4,0.4,1,0.4,1.4,0
	l1.4-1.5v0.8c0,0.5,0.3,1,0.8,1c0.1,0,0.1,0,0.2,0c0.6,0,1.1-0.5,1.1-1.1l0.1-2.1c0-0.2,0-0.4-0.2-0.6l1.9-1.9v0.8
	c0,0.5,0.3,1,0.8,1c0.1,0,0.1,0,0.2,0c0.6,0,1.1-0.5,1.1-1.1l0.1-2.1c0-0.2,0-0.4-0.2-0.6l2.9-2.9v4.3c-0.2,0-0.4,0.1-0.5,0.3
	l-1.4,1.6c-0.4,0.5-0.4,1.1,0,1.6c0.3,0.4,0.9,0.4,1.3,0.1c0,0,0.1-0.1,0.1-0.1l0.5-0.6v2.7c-0.2,0-0.4,0.1-0.5,0.3l-1.4,1.6
	c-0.4,0.5-0.4,1.1,0,1.6c0.3,0.4,0.9,0.4,1.3,0.1c0,0,0.1-0.1,0.1-0.1l0.5-0.6v1.8c0,0.6,0.4,1,1,1s1-0.4,1-1v-1.8l0.5,0.6
	c0.3,0.4,0.9,0.4,1.3,0.1c0,0,0.1-0.1,0.1-0.1c0.4-0.5,0.4-1.1,0-1.6l-1.4-1.6c-0.1-0.1-0.3-0.2-0.5-0.3v-2.7l0.5,0.6
	c0.3,0.4,0.9,0.4,1.3,0.1c0,0,0.1-0.1,0.1-0.1c0.4-0.5,0.4-1.1,0-1.6l-1.4-1.6c-0.1-0.1-0.3-0.2-0.5-0.3V87l2.9,2.9
	c-0.1,0.2-0.2,0.4-0.2,0.6l0.1,2.1c0,0.6,0.5,1.1,1.1,1.1c0.5,0,1-0.3,1-0.8c0-0.1,0-0.1,0-0.2V92l1.9,1.9c-0.1,0.2-0.2,0.4-0.2,0.6
	l0.1,2.1c0.1,0.6,0.5,1.1,1.1,1.1c0.5,0,1-0.3,1-0.8c0-0.1,0-0.1,0-0.2V96l1.3,1.3c0.4,0.4,1,0.4,1.4,0c0.4-0.4,0.4-1,0-1.4
	c0,0,0,0,0,0l-1.3-1.3h0.8c0.5,0,1-0.3,1-0.8c0-0.1,0-0.1,0-0.2c-0.1-0.6-0.6-1.1-1.2-1.1l-2.1-0.1c-0.2,0-0.4,0.1-0.6,0.2l-1.9-1.9
	h0.8c0.5,0,1-0.3,1-0.8c0-0.1,0-0.1,0-0.2c-0.1-0.6-0.6-1-1.2-1.1l-2.1-0.1c-0.2,0-0.4,0-0.6,0.2l-3-3h4.3c0.1,0.2,0.2,0.4,0.3,0.5
	l1.6,1.4c0.5,0.4,1.1,0.4,1.6,0c0.4-0.3,0.4-0.9,0.1-1.3c0,0-0.1-0.1-0.1-0.1l-0.6-0.5h2.7c0,0.2,0.1,0.4,0.3,0.5l1.6,1.4
	c0.5,0.4,1.1,0.4,1.6,0c0.4-0.3,0.4-0.9,0.1-1.3c0,0-0.1-0.1-0.1-0.1l-0.6-0.5h1.8c0.6,0,1-0.4,1-1S107.6,83.5,107,83.5z M90,85.5
	c-0.6,0-1-0.4-1-1s0.4-1,1-1s1,0.4,1,1S90.6,85.5,90,85.5z"/>
</svg>
