<?xml version="1.0" encoding="utf-8"?>
<!-- Generator: Adobe Illustrator 24.0.3, SVG Export Plug-In . SVG Version: 6.00 Build 0)  -->
<svg version="1.1" id="Layer_1" xmlns="http://www.w3.org/2000/svg" xmlns:xlink="http://www.w3.org/1999/xlink" x="0px" y="0px"
	 viewBox="0 0 100 125" style="enable-background:new 0 0 100 125;" xml:space="preserve">
<path d="M90.1,59.5l-11.8,3.2l-22.5-13l22.5-13l11.8,3.2c1.4,0.4,2.9-0.5,3.3-1.9c0.4-1.4-0.5-2.9-1.9-3.3l-6.6-1.8l6.1-3.5
	c1.3-0.7,1.7-2.4,1-3.7c-0.7-1.3-2.4-1.7-3.7-1l-6.1,3.5l1.8-6.6c0.4-1.4-0.5-2.9-1.9-3.3c-1.4-0.4-2.9,0.5-3.3,1.9L75.5,32L53,45
	V19l8.7-8.7c1.1-1.1,1.1-2.8,0-3.8c-1.1-1.1-2.8-1.1-3.9,0L53,11.4V4.3c0-1.5-1-2.7-2.5-2.7C49,1.6,48,2.8,48,4.3v7.1l-5-4.9
	c-1.1-1.1-2.8-1.1-3.9,0c-1.1,1.1-0.9,2.8,0.1,3.8L48,19v26L25.4,32l-3.3-11.8c-0.4-1.4-1.9-2.3-3.3-1.9c-1.4,0.4-2.3,1.9-1.9,3.3
	l1.8,6.6l-6.1-3.5c-1.3-0.7-2.9-0.3-3.7,1c-0.7,1.3-0.3,2.9,1,3.7l6.1,3.5l-6.6,1.8C7.8,35,7,36.5,7.3,37.9c0.4,1.4,1.9,2.3,3.3,1.9
	l11.8-3.2l22.5,13l-22.5,13l-11.8-3.2c-1.4-0.4-2.9,0.5-3.3,1.9c-0.4,1.4,0.5,2.9,1.9,3.3l6.6,1.8L9.7,70c-1.3,0.7-1.7,2.4-1,3.7
	c0.7,1.3,2.4,1.7,3.7,1l6.1-3.5l-1.8,6.6c-0.4,1.4,0.5,2.9,1.9,3.3c1.4,0.4,2.9-0.5,3.3-1.9l3.3-11.8l22.6-13v26L39.2,89
	c-1.1,1.1-1.1,2.8-0.1,3.8c1.1,1.1,2.9,1.1,3.9,0l5-4.9V95c0,1.5,1,2.7,2.5,2.7c1.5,0,2.5-1.2,2.5-2.7v-7.1l4.9,4.9
	c1.1,1.1,2.8,1.1,3.8,0c1.1-1.1,1-2.8,0-3.8L53,80.3v-26l22.5,13l3.2,11.8c0.4,1.4,1.9,2.3,3.3,1.9c1.4-0.4,2.3-1.9,1.9-3.3
	l-1.8-6.6l6.1,3.5c1.3,0.7,2.9,0.3,3.7-1c0.7-1.3,0.3-2.9-1-3.7l-6.1-3.5l6.6-1.8c1.4-0.4,2.3-1.9,1.9-3.3
	C93,59.9,91.6,59.1,90.1,59.5z"/>
</svg>
