<?xml version="1.0" encoding="utf-8"?>
<!-- Generator: Adobe Illustrator 24.0.3, SVG Export Plug-In . SVG Version: 6.00 Build 0)  -->
<svg version="1.1" id="Layer_1" xmlns="http://www.w3.org/2000/svg" xmlns:xlink="http://www.w3.org/1999/xlink" x="0px" y="0px"
	 viewBox="0 0 100 125" style="enable-background:new 0 0 100 125;" xml:space="preserve">
<style type="text/css">
	.st0{fill:none;stroke:#000000;stroke-width:4;stroke-linecap:round;stroke-linejoin:round;stroke-miterlimit:10;}
</style>
<g>
	<path class="st0" d="M71,60.2h12.2c6.1,0,11.1-5,11.1-11.1c0-6.1-5-11.1-11.1-11.1c-0.1,0-0.1,0-0.2,0c0,0,0,0,0,0
		c0-12.1-9.8-22-22-22c-8.9,0-16.5,5.3-20,12.8c-2.3-1.2-4.9-1.9-7.7-1.9c-7.2,0-13.4,4.7-15.7,11.1c-0.3,0-0.6,0-0.9,0
		c-6.1,0-11.1,5-11.1,11.1c0,6.1,5,11.1,11.1,11.1h14.5"/>
	<polygon class="st0" points="49,44.4 58.1,44.4 52.9,58.2 61.1,58.2 42.9,84 50.6,63.4 43.6,63.4 	"/>
</g>
</svg>
