<?xml version="1.0" encoding="utf-8"?>
<!-- Generator: Adobe Illustrator 24.0.3, SVG Export Plug-In . SVG Version: 6.00 Build 0)  -->
<svg version="1.1" id="Layer_1" xmlns="http://www.w3.org/2000/svg" xmlns:xlink="http://www.w3.org/1999/xlink" x="0px" y="0px"
	 viewBox="0 0 120 150" style="enable-background:new 0 0 120 150;" xml:space="preserve">
<title>94 Cloudy Windy</title>
<path d="M103,77c-0.3,0-0.7-0.1-1-0.1c-2.4,0-4.4,1.7-4.9,4c-0.1,0.2-0.1,0.4-0.1,0.7c0,0.1,0,0.2,0,0.3c0,2.8,2.2,5,5,5
	c0.3,0,0.7,0,1-0.1c0.4-0.1,0.8-0.2,1.1-0.4c0.3-0.2,0.6-0.5,0.6-0.9c0-0.6-0.4-1-1-1c-0.1,0-0.3,0-0.4,0.1c-0.1,0-0.2,0.1-0.3,0.1
	c-0.4,0.2-0.9,0.2-1.3,0.2c-1.3-0.2-2.3-1.2-2.6-2.4C99,82,99,81.5,99.2,80.9c0.4-1.1,1.4-1.9,2.5-2h0.3c0.3,0,0.7,0,1,0.1
	c2.9,0.5,5,3,5,5.9c0,1.7-0.7,3.4-2,4.5c-0.8,0.7-1.9,1.2-3,1.4c-0.3,0.1-0.7,0.1-1,0.1H75c-0.6,0-1,0.4-1,1s0.4,1,1,1h27
	c4.4,0,8-3.6,8-8C110,80.9,107,77.5,103,77z"/>
<path d="M109,96.9H75c-0.6,0-1,0.4-1,1s0.4,1,1,1h34c0.6,0,1-0.4,1-1S109.6,96.9,109,96.9z"/>
<path d="M72,92h-8.2c-0.2-6.8-5.9-12.1-12.7-11.9c-2.5,0.1-4.9,0.9-6.9,2.4c-0.1-0.5-0.1-1-0.1-1.5c0-0.4,0-0.7,0.1-1.1
	c0.1-0.7,0.2-1.3,0.4-2c1.4-4.6,5.6-7.8,10.5-7.8h2.7v-2c0-10.2,8.2-18.4,18.4-18.4c10.2,0,18.4,8.2,18.4,18.4v2h2.7
	c2.4,0,4.7,0.8,6.6,2.2c0.5,0.4,1,0.9,1.5,1.3c0.7,0.7,1.3,1.6,1.7,2.5c1.1,0.6,2.1,1.5,2.9,2.5c-0.5-2.5-1.6-4.7-3.4-6.5
	c6.1-8.5,4.2-20.4-4.3-26.5C98.9,43.3,95,42,91,42h-1c0-16.6-13.4-30-30-30S30,25.4,30,42h-1c-10.5,0-19,8.5-19,19s8.5,19,19,19h13
	c0,0.4,0,0.7,0,1.1c0,1,0.1,2.1,0.4,3.1c-2,2.3-3.2,5.2-3.2,8.2h-0.4c-4.3,0-7.8,3.5-7.8,7.8s3.5,7.8,7.8,7.8h25.4
	c4.3,0,7.8-3.5,7.8-7.8c0-2.1-0.8-4.1-2.3-5.5c-0.3-0.3-0.5-0.5-0.8-0.7h4C72.4,93.5,72,92.8,72,92z M42.4,78H29
	c-9.4,0-17-7.6-17-17s7.6-17,17-17h3v-2c0-15.5,12.5-28,28-28s28,12.5,28,28v2h3c9.4,0,17,7.6,17,17c0,3.5-1.1,6.9-3.1,9.8
	c-2.2-1.7-5-2.6-7.8-2.6h-0.7c0-11.3-9.1-20.4-20.4-20.4s-20.4,9.1-20.4,20.4h-0.7C49,68.2,43.8,72.2,42.4,78z M70,100.2
	c0,3.2-2.6,5.8-5.8,5.8H38.8c-3.2,0-5.8-2.6-5.8-5.8s2.6-5.8,5.8-5.8h2.4v-2c0-2.2,0.7-4.3,1.9-6c0.4-0.6,0.9-1.2,1.5-1.7l0,0
	c4.2-3.8,10.8-3.4,14.5,0.8c1.6,1.8,2.5,4,2.6,6.4c0,0.1,0,0.3,0,0.4v2h2.4C67.4,94.4,70,97,70,100.2z"/>
</svg>
